<svg width="36" height="36" viewBox="0 0 36 36" fill="none" xmlns="http://www.w3.org/2000/svg">
<path d="M30.705 3.00003H5.295C5.00936 2.99606 4.72575 3.0484 4.46034 3.15405C4.19494 3.25971 3.95295 3.41661 3.74819 3.61579C3.54343 3.81498 3.37992 4.05255 3.26698 4.31494C3.15405 4.57733 3.09391 4.85939 3.09 5.14503V30.855C3.09391 31.1407 3.15405 31.4227 3.26698 31.6851C3.37992 31.9475 3.54343 32.1851 3.74819 32.3843C3.95295 32.5834 4.19494 32.7403 4.46034 32.846C4.72575 32.9517 5.00936 33.004 5.295 33H30.705C30.9906 33.004 31.2742 32.9517 31.5396 32.846C31.8051 32.7403 32.047 32.5834 32.2518 32.3843C32.4566 32.1851 32.6201 31.9475 32.733 31.6851C32.8459 31.4227 32.9061 31.1407 32.91 30.855V5.14503C32.9061 4.85939 32.8459 4.57733 32.733 4.31494C32.6201 4.05255 32.4566 3.81498 32.2518 3.61579C32.047 3.41661 31.8051 3.25971 31.5396 3.15405C31.2742 3.0484 30.9906 2.99606 30.705 3.00003ZM12.135 28.11H7.635V14.61H12.135V28.11ZM9.885 12.72C9.26439 12.72 8.6692 12.4735 8.23037 12.0347C7.79153 11.5958 7.545 11.0006 7.545 10.38C7.545 9.75942 7.79153 9.16423 8.23037 8.7254C8.6692 8.28656 9.26439 8.04003 9.885 8.04003C10.2145 8.00265 10.5483 8.03531 10.8643 8.13585C11.1804 8.2364 11.4716 8.40256 11.719 8.62347C11.9664 8.84438 12.1643 9.11504 12.2998 9.41775C12.4353 9.72046 12.5054 10.0484 12.5054 10.38C12.5054 10.7117 12.4353 11.0396 12.2998 11.3423C12.1643 11.645 11.9664 11.9157 11.719 12.1366C11.4716 12.3575 11.1804 12.5237 10.8643 12.6242C10.5483 12.7247 10.2145 12.7574 9.885 12.72ZM28.365 28.11H23.865V20.865C23.865 19.05 23.22 17.865 21.585 17.865C21.079 17.8687 20.5863 18.0274 20.1733 18.3198C19.7602 18.6121 19.4467 19.024 19.275 19.5C19.1576 19.8526 19.1068 20.2239 19.125 20.595V28.095H14.625V14.595H19.125V16.5C19.5338 15.7907 20.1284 15.2063 20.8447 14.8098C21.561 14.4134 22.3718 14.2198 23.19 14.25C26.19 14.25 28.365 16.185 28.365 20.34V28.11Z" fill="black"/>
</svg>
