<svg width="16" height="16" viewBox="0 0 16 16" fill="none" xmlns="http://www.w3.org/2000/svg">
<path d="M13.6467 1.33335H2.35332C2.22637 1.33158 2.10032 1.35484 1.98237 1.4018C1.86441 1.44876 1.75686 1.51849 1.66585 1.60702C1.57485 1.69555 1.50218 1.80113 1.45198 1.91775C1.40179 2.03437 1.37506 2.15973 1.37332 2.28668V13.7133C1.37506 13.8403 1.40179 13.9657 1.45198 14.0823C1.50218 14.1989 1.57485 14.3045 1.66585 14.393C1.75686 14.4815 1.86441 14.5513 1.98237 14.5982C2.10032 14.6452 2.22637 14.6684 2.35332 14.6667H13.6467C13.7736 14.6684 13.8997 14.6452 14.0176 14.5982C14.1356 14.5513 14.2431 14.4815 14.3341 14.393C14.4251 14.3045 14.4978 14.1989 14.548 14.0823C14.5982 13.9657 14.6249 13.8403 14.6267 13.7133V2.28668C14.6249 2.15973 14.5982 2.03437 14.548 1.91775C14.4978 1.80113 14.4251 1.69555 14.3341 1.60702C14.2431 1.51849 14.1356 1.44876 14.0176 1.4018C13.8997 1.35484 13.7736 1.33158 13.6467 1.33335ZM5.39332 12.4933H3.39332V6.49335H5.39332V12.4933ZM4.39332 5.65335C4.1175 5.65335 3.85297 5.54377 3.65793 5.34874C3.46289 5.1537 3.35332 4.88917 3.35332 4.61335C3.35332 4.33752 3.46289 4.07299 3.65793 3.87795C3.85297 3.68292 4.1175 3.57335 4.39332 3.57335C4.53979 3.55674 4.68811 3.57125 4.82857 3.61593C4.96904 3.66062 5.09848 3.73447 5.20843 3.83265C5.31837 3.93083 5.40634 4.05113 5.46657 4.18567C5.5268 4.3202 5.55793 4.46594 5.55793 4.61335C5.55793 4.76075 5.5268 4.90649 5.46657 5.04102C5.40634 5.17556 5.31837 5.29586 5.20843 5.39404C5.09848 5.49222 4.96904 5.56607 4.82857 5.61076C4.68811 5.65544 4.53979 5.66996 4.39332 5.65335ZM12.6067 12.4933H10.6067V9.27335C10.6067 8.46668 10.32 7.94001 9.59332 7.94001C9.36843 7.94166 9.14945 8.0122 8.96588 8.14213C8.78231 8.27206 8.64298 8.45513 8.56666 8.66668C8.51449 8.82337 8.49188 8.98839 8.49999 9.15335V12.4867H6.49999V6.48668H8.49999V7.33335C8.68168 7.01808 8.94593 6.75836 9.26428 6.58215C9.58264 6.40594 9.94303 6.31991 10.3067 6.33335C11.64 6.33335 12.6067 7.19335 12.6067 9.04001V12.4933Z" fill="black"/>
</svg>
