<svg width="16" height="16" viewBox="0 0 16 16" fill="none" xmlns="http://www.w3.org/2000/svg">
<path d="M8.66666 5.99998H12.3333L8.66666 2.33331V5.99998ZM3.99999 1.33331H9.33332L13.3333 5.33331V13.3333C13.3333 13.6869 13.1928 14.0261 12.9428 14.2761C12.6927 14.5262 12.3536 14.6666 12 14.6666H3.99999C3.64637 14.6666 3.30723 14.5262 3.05718 14.2761C2.80713 14.0261 2.66666 13.6869 2.66666 13.3333V2.66665C2.66666 1.92665 3.25999 1.33331 3.99999 1.33331ZM9.33332 13.3333V12.6666C9.33332 11.78 7.55332 11.3333 6.66666 11.3333C5.77999 11.3333 3.99999 11.78 3.99999 12.6666V13.3333H9.33332ZM6.66666 7.99998C6.31303 7.99998 5.9739 8.14046 5.72385 8.3905C5.4738 8.64055 5.33332 8.97969 5.33332 9.33331C5.33332 9.68693 5.4738 10.0261 5.72385 10.2761C5.9739 10.5262 6.31303 10.6666 6.66666 10.6666C7.02028 10.6666 7.35942 10.5262 7.60947 10.2761C7.85951 10.0261 7.99999 9.68693 7.99999 9.33331C7.99999 8.97969 7.85951 8.64055 7.60947 8.3905C7.35942 8.14046 7.02028 7.99998 6.66666 7.99998Z" fill="black"/>
</svg>
