<svg width="16" height="16" viewBox="0 0 16 16" fill="none" xmlns="http://www.w3.org/2000/svg">
<path d="M7.99998 1.33331C7.1245 1.33331 6.25759 1.50575 5.44876 1.84078C4.63992 2.17581 3.90499 2.66688 3.28593 3.28593C2.03569 4.53618 1.33331 6.23187 1.33331 7.99998C1.33331 10.9466 3.24665 13.4466 5.89331 14.3333C6.22665 14.3866 6.33331 14.18 6.33331 14V12.8733C4.48665 13.2733 4.09331 11.98 4.09331 11.98C3.78665 11.2066 3.35331 11 3.35331 11C2.74665 10.5866 3.39998 10.6 3.39998 10.6C4.06665 10.6466 4.41998 11.2866 4.41998 11.2866C4.99998 12.3 5.97998 12 6.35998 11.84C6.41998 11.4066 6.59331 11.1133 6.77998 10.9466C5.29998 10.78 3.74665 10.2066 3.74665 7.66665C3.74665 6.92665 3.99998 6.33331 4.43331 5.85998C4.36665 5.69331 4.13331 4.99998 4.49998 4.09998C4.49998 4.09998 5.05998 3.91998 6.33331 4.77998C6.85998 4.63331 7.43331 4.55998 7.99998 4.55998C8.56665 4.55998 9.13998 4.63331 9.66665 4.77998C10.94 3.91998 11.5 4.09998 11.5 4.09998C11.8666 4.99998 11.6333 5.69331 11.5666 5.85998C12 6.33331 12.2533 6.92665 12.2533 7.66665C12.2533 10.2133 10.6933 10.7733 9.20665 10.94C9.44665 11.1466 9.66665 11.5533 9.66665 12.1733V14C9.66665 14.18 9.77331 14.3933 10.1133 14.3333C12.76 13.44 14.6666 10.9466 14.6666 7.99998C14.6666 7.1245 14.4942 6.25759 14.1592 5.44876C13.8241 4.63992 13.3331 3.90499 12.714 3.28593C12.095 2.66688 11.36 2.17581 10.5512 1.84078C9.74237 1.50575 8.87546 1.33331 7.99998 1.33331Z" fill="black"/>
</svg>
