<svg width="36" height="36" viewBox="0 0 36 36" fill="none" xmlns="http://www.w3.org/2000/svg">
<path d="M19.5 13.5H27.75L19.5 5.25V13.5ZM9 3H21L30 12V30C30 30.7956 29.6839 31.5587 29.1213 32.1213C28.5587 32.6839 27.7956 33 27 33H9C8.20435 33 7.44129 32.6839 6.87868 32.1213C6.31607 31.5587 6 30.7956 6 30V6C6 4.335 7.335 3 9 3ZM21 30V28.5C21 26.505 16.995 25.5 15 25.5C13.005 25.5 9 26.505 9 28.5V30H21ZM15 18C14.2043 18 13.4413 18.3161 12.8787 18.8787C12.3161 19.4413 12 20.2044 12 21C12 21.7956 12.3161 22.5587 12.8787 23.1213C13.4413 23.6839 14.2043 24 15 24C15.7956 24 16.5587 23.6839 17.1213 23.1213C17.6839 22.5587 18 21.7956 18 21C18 20.2044 17.6839 19.4413 17.1213 18.8787C16.5587 18.3161 15.7956 18 15 18Z" fill="black"/>
</svg>
