<svg width="814" height="900" viewBox="0 0 814 900" fill="none" xmlns="http://www.w3.org/2000/svg">
<path d="M802.16 730.148C743.552 803.821 663.315 857.258 572.743 882.937C482.171 908.615 385.827 905.241 297.273 873.29C208.719 841.339 132.416 782.42 79.1052 704.827C25.7944 627.235 -1.83905 534.877 0.0949707 440.755C2.02899 346.634 33.4332 255.489 89.8864 180.152C146.34 104.815 224.999 49.0798 314.79 20.7934C404.582 -7.49295 500.983 -6.90626 590.424 22.4709C679.864 51.8481 757.839 108.536 813.371 184.555L811.814 185.693C756.52 110 678.879 53.5548 589.822 24.3036C500.765 -4.9476 404.776 -5.53179 315.37 22.6333C225.963 50.7984 147.641 106.294 91.4301 181.308C35.2189 256.322 3.94934 347.077 2.02362 440.795C0.0978394 534.513 27.6129 626.475 80.6951 703.735C133.777 780.995 209.753 839.661 297.928 871.475C386.102 903.29 482.033 906.649 572.217 881.081C662.4 855.513 742.294 802.305 800.651 728.947L802.16 730.148Z" fill="#BCB7AF"/>
</svg>
